inDegrees=no
num_controls=7
num_derivatives=13
num_iterations=133
num_multipliers=7
num_parameters=0
num_slacks=7
num_states=26
objective=0.516792
objective_accelerations=0.039835
objective_balance=0.002222
objective_effort=0.043860
objective_height=0.419248
objective_ligament=0.011628
solver_duration=1743.002690
status=Solve_Succeeded
success=true
DataType=double
version=3
OpenSimVersion=4.5
endheader
time	/jointset/ground_pelvis/pelvis_tilt/value	/jointset/ground_pelvis/pelvis_tx/value	/jointset/ground_pelvis/pelvis_ty/value	/jointset/hip_l/hip_flexion_l/value	/jointset/hip_l/hip_adduction_l/value	/jointset/hip_l/hip_rotation_l/value	/jointset/back/lumbar_extension/value	/jointset/patellofemoral_l/patellar_flexion_l/value	/jointset/knee_l/knee_flexion_l/value	/jointset/knee_l/knee_adduction_l/value	/jointset/knee_l/knee_rotation_l/value	/jointset/ankle_l/ankle_angle_l/value	/jointset/subtalar_l/subtalar_angle_l/value	/jointset/ground_pelvis/pelvis_tilt/speed	/jointset/ground_pelvis/pelvis_tx/speed	/jointset/ground_pelvis/pelvis_ty/speed	/jointset/hip_l/hip_flexion_l/speed	/jointset/hip_l/hip_adduction_l/speed	/jointset/hip_l/hip_rotation_l/speed	/jointset/back/lumbar_extension/speed	/jointset/patellofemoral_l/patellar_flexion_l/speed	/jointset/knee_l/knee_flexion_l/speed	/jointset/knee_l/knee_adduction_l/speed	/jointset/knee_l/knee_rotation_l/speed	/jointset/ankle_l/ankle_angle_l/speed	/jointset/subtalar_l/subtalar_angle_l/speed	/forceset/tau_hip_flexion_l	/forceset/tau_hip_adduction_l	/forceset/tau_hip_rotation_l	/forceset/tau_knee_flexion_l	/forceset/tau_ankle_angle_l	/forceset/tau_subtalar_angle_l	/forceset/tau_lumbar_extension	lambda_cid13_p0	lambda_cid13_p1	lambda_cid13_p2	lambda_cid13_p3	lambda_cid13_p4	lambda_cid13_p5	lambda_cid14_p0	/jointset/ground_pelvis/pelvis_tilt/accel	/jointset/ground_pelvis/pelvis_tx/accel	/jointset/ground_pelvis/pelvis_ty/accel	/jointset/hip_l/hip_flexion_l/accel	/jointset/hip_l/hip_adduction_l/accel	/jointset/hip_l/hip_rotation_l/accel	/jointset/back/lumbar_extension/accel	/jointset/patellofemoral_l/patellar_flexion_l/accel	/jointset/knee_l/knee_flexion_l/accel	/jointset/knee_l/knee_adduction_l/accel	/jointset/knee_l/knee_rotation_l/accel	/jointset/ankle_l/ankle_angle_l/accel	/jointset/subtalar_l/subtalar_angle_l/accel	gamma_cid13_p0	gamma_cid13_p1	gamma_cid13_p2	gamma_cid13_p3	gamma_cid13_p4	gamma_cid13_p5	gamma_cid14_p0
1.5	-0.01560445335096986	-0.0266503002406141	0.8683758973606097	0.6344337596074188	-0.3125581867238391	-0.1779235941298703	-0.7852466086447425	0.6390379523021578	0.6390379523022515	-0.1083932604034634	-0.1745057290551077	0.06856682525604135	0.005094791256070136	0.3899371745704525	0.28048529294269	0.3446082651893977	-1.871443946366695	0.09414670346517798	-0.5357988588145813	0.8401865581175	-1.639537827961219	-1.639537827961208	-0.1260868690190654	-2.917700766198034e-05	-0.2463748147915486	0.02277264377850317	-0.2064660275595842	0.0137994001326435	-0.003790731534880623	-0.1901580133989667	0.09682562036825768	0.04748669535555088	0.2820307891686847	-11.48944783799262	-20.78391053852535	5.340343106169207	-8.676929047088256	-673.6837987426391	-82.01559363420012	-19.93844778196131	0.001747962318407305	0.6401931254506431	-0.4972663442144355	-0.6603349001002943	0.3208655228477971	-0.2188582865983106	1.790703042320067	-0.6444418002061592	-0.6444418002061695	-0.2948646810393339	0.03620843455547595	0.03884547268279868	0.3435914009062713	1.801384633822099e-09	1.017783995298925e-06	1.447482876087006e-07	1.572161312664279e-07	8.406392472725216e-08	1.444733630526884e-07	1.002842540655134e-07
1.51	-0.01170544694574558	-0.02381371505345742	0.8717964515320406	0.6156883626552268	-0.3116011498683309	-0.183293685924943	-0.7767564532697073	0.6226124463378393	0.6226124463378623	-0.1096687957665875	-0.1745060300502402	0.06610534659889442	0.005339288085617826	0.389809902286433	0.2868004776224983	0.3394368746390546	-1.877396802130019	0.09725222560130377	-0.5381667306974586	0.8577267211371805	-1.645341572676509	-1.645341572676508	-0.129015033582299	-3.278847692388495e-05	-0.2458706250834975	0.02613210526659445	-0.1988835387198627	0.0129468699911617	-0.00376019575880482	-0.1876144195647478	0.09651895270565511	0.04655546468876573	0.2749760042342053	-11.39389237390006	-20.4413137932294	5.337245357873089	-8.481378540731543	-669.8861549084363	-81.9105252818615	-20.41243047563326	-0.02810545337886891	0.6225244136007291	-0.5369125945071725	-0.5269766743724376	0.303953963265851	-0.2377542096868928	1.718003568856402	-0.5150916622197127	-0.5150916622211643	-0.2908177694861929	-0.01889870211084702	0.06377766953128203	0.3327382390853773	-6.04668085414399e-09	1.057797678660912e-06	1.759080483355609e-07	1.633570353603118e-07	8.463081821207358e-08	1.470178605094401e-07	9.906999460444336e-08
1.52	-0.007809341389286988	-0.02091490936463186	0.8751633243611553	0.5968905939934157	-0.3106133461106043	-0.1886858569529573	-0.7680944301370629	0.6061355527553619	0.6061355527553156	-0.1109734178604505	-0.1745064177129529	0.06365042422876108	0.005617502473311405	0.3893570048177533	0.2929293932764649	0.3338719967261915	-1.881918288290302	0.1003000839082631	-0.5402147054025136	0.8745601096394438	-1.649815351592971	-1.649815351592979	-0.1319042151663643	-4.651052393868382e-05	-0.2450635573888452	0.0295161554076787	-0.1913010498801407	0.01209433984968007	-0.003729659982730443	-0.1850708257305294	0.09621228504305224	0.0456242340219793	0.2679212192997262	-11.30396210495836	-20.09783910821662	5.334129793594796	-8.289904863436929	-666.185319849472	-81.82374258734792	-20.86269542893072	-0.0633770746137145	0.6029393202823474	-0.5759638167184038	-0.3740609794920478	0.3093327570144942	-0.1548788510338468	1.649348138836572	-0.3784486404405489	-0.3784486404405509	-0.287068085205677	0.03418631900489861	0.09942107000309935	0.3485091315048847	-4.501074433944236e-09	1.063977354276934e-06	1.570049299620124e-07	1.601911775934391e-07	9.273068614962962e-08	1.541330682937466e-07	1.008774122012605e-07
1.53	-0.003919395137665718	-0.0179558176721276	0.8784726330800881	0.578054789989192	-0.3095954219340021	-0.1940966501369239	-0.7592677909702426	0.5896205758976376	0.5896205758976041	-0.1123069801330275	-0.1745068133714052	0.06120504404785718	0.005929590646202139	0.3885768949029017	0.2988499992638591	0.3279289186079083	-1.884995232887576	0.1032716995619227	-0.541889627651946	0.8906313996618905	-1.652951117720783	-1.652951117720787	-0.1348029335925363	-3.566689109788169e-05	-0.2439637028437344	0.03290170731111146	-0.1835786122312137	0.01110290473359239	-0.003754171940399234	-0.1826386009137979	0.09595014756343356	0.04466667221852305	0.2607270252811638	-11.2073854452999	-19.74233003290929	5.327082380782108	-8.043917136253853	-662.553280505583	-81.74147054315335	-21.2864077586995	-0.09363826068904191	0.5808073737182243	-0.6125805861313183	-0.2374279814789149	0.2889682030601803	-0.1655616565276308	1.565570824449716	-0.2468269807008468	-0.2468269807002982	-0.2902972217206678	-0.01593836045317206	0.1226100040812664	0.3334462075149762	7.025308388681622e-09	1.034208396662866e-06	8.491000254427986e-08	1.471368853495124e-07	1.088343394432161e-07	1.661046558010801e-07	1.058953616720828e-07
1.54	-3.891204734966046e-05	-0.01493868269259954	0.8817206908624884	0.5591956331826676	-0.308548203154158	-0.1995225450923104	-0.750284528625098	0.5730811041022874	0.5730811041022649	-0.1136693342899492	-0.1745071949426989	0.05877213088386789	0.006275507935677689	0.3874643725573332	0.3045380506812266	0.3216218094197013	-1.886588848750208	0.1061590045563191	-0.5432350596865645	0.9058847453043859	-1.65471433911857	-1.654714339118571	-0.1376625920346151	-4.369309333118168e-05	-0.242570154005975	0.03628197872464481	-0.1758561745822795	0.01011146961751005	-0.003778683898107621	-0.180206376097061	0.09568801008381744	0.04370911041507299	0.2535328312626048	-11.11656359058437	-19.38542025373199	5.319362775954151	-7.801218693996597	-659.0196385573706	-81.67944701254555	-21.68079783578123	-0.1298595607571878	0.5564284062770459	-0.6487700307031828	-0.07739523256377598	0.2924706251618474	-0.08898080807102547	1.485759262846258	-0.1039396944358267	-0.103939694435827	-0.2792560883870641	0.03041235199008062	0.1581599285328801	0.3474530335250223	1.132686145306883e-08	1.01731207047248e-06	4.956802915673053e-08	1.39194006279444e-07	1.191373383512222e-07	1.725853741029105e-07	1.07283714895588e-07
1.55	0.003828757774483066	-0.01186592220481985	0.8849039083475448	0.5403280926482815	-0.3074724941864604	-0.2049602504794044	-0.7411530103364831	0.5565309330314874	0.5565309330314202	-0.1150599691649648	-0.1745077166430264	0.05635460206996033	0.006655241869229608	0.3860123795965335	0.3099655027143571	0.31496578979113	-1.8866566008406	0.1089684027192793	-0.5442499333996016	0.9202620229712628	-1.655079904399677	-1.655079904399679	-0.1404511886387654	-6.39382629599021e-05	-0.240888504787186	0.03966340914600027	-0.168021034468965	0.009058209134039466	-0.00385096709138728	-0.1778431940818544	0.09540046861474936	0.04268273601307459	0.2462165443628199	-11.0450652841226	-18.99317146788371	5.30364427085055	-7.469601462891894	-655.5741261678023	-81.57716444624285	-22.04315421564979	-0.1614608512669019	0.5286491778597303	-0.6823776454064424	0.06792269587729585	0.2728631485262777	-0.09924315537537828	1.390178601418249	0.03311006371014702	0.03311006371004578	-0.2765017485522053	-0.01874977594482109	0.1802577316823313	0.3331111290912431	7.3041541438337e-09	1.01524725440068e-06	5.657185063004211e-08	1.371403641270815e-07	1.227569745975817e-07	1.727396561462268e-07	1.044901420080541e-07
1.56	0.00768018932919751	-0.008740338081503296	0.8880188936930211	0.5214677521716167	-0.3063691534898028	-0.2104064051041206	-0.7318824259546383	0.5399843013096041	0.5399843013095003	-0.1164780580664423	-0.1745085421599555	0.0539553078108666	0.007068714723525184	0.3842167191347275	0.3151027777886027	0.3079753815036585	-1.885148837204818	0.1116853503487722	-0.5449249072108537	0.9336979639505433	-1.654006469334455	-1.654006469334457	-0.1431533973278471	-0.0001044564128069666	-0.2389232430431796	0.04302976287337276	-0.1601858943556679	0.008004948650555481	-0.00392325028461458	-0.175480012066658	0.09511292714567829	0.04165636161106888	0.2389002574630269	-10.9794904959715	-18.59886004379911	5.286425751275771	-7.138486761208049	-652.2279977204214	-81.49133752572733	-22.37089047944112	-0.1985930609585487	0.498393014500137	-0.7156477624832593	0.2377079126710296	0.2739805184683639	-0.02100082771402025	1.297491925326926	0.1838603748298745	0.1838603748298724	-0.2619785053733889	0.02635775594642321	0.2148824335764411	0.3444376947284521	2.155899090862689e-08	1.003677541304367e-06	-1.485812713809526e-08	1.240869455568566e-07	1.513672440149188e-07	1.937309997624184e-07	1.114400012078016e-07
